<?xml version="1.0" encoding="UTF-8" standalone="no"?>
<svg xmlns="http://www.w3.org/2000/svg" width="2000" height="3000">
  <style>
    .box { fill: #f0f0f0; stroke: black; stroke-width: 2; }
    .diamond { fill: #ffffff; stroke: black; stroke-width: 2; }
    .text { font-family: Arial; font-size: 18px; text-anchor: middle; }
    .arrow { stroke: black; stroke-width: 2; marker-end: url(#arrowhead); }
  </style>

  <defs>
    <marker id="arrowhead" markerWidth="10" markerHeight="7"
            refX="0" refY="3.5" orient="auto">
      <polygon points="0 0, 10 3.5, 0 7" fill="black" />
    </marker>
  </defs>

  <!-- BOITES -->
  <!-- Start -->
  <rect x="905" y="20" width="90" height="60" class="box"/>
  <text x="950" y="55" class="text">Start</text>

  <!-- Input string -->
  <rect x="830" y="180" width="240" height="60" class="box"/>
  <text x="950" y="215" class="text">Input string or JSON</text>

  <!-- Size > 5MB -->
  <polygon points="950,360 1070,460 950,560 830,460" class="diamond"/>
  <text x="950" y="465" class="text">Size > 5MB?</text>

  <!-- Return original -->
  <rect x="1350" y="430" width="260" height="60" class="box"/>
  <text x="1480" y="465" class="text">Return original input</text>

  <!-- Dangerous patterns -->
  <rect x="800" y="660" width="300" height="60" class="box"/>
  <text x="950" y="695" class="text">Check dangerous patterns</text>

  <!-- Walk fields -->
  <rect x="830" y="820" width="240" height="60" class="box"/>
  <text x="950" y="855" class="text">If JSON: walk fields</text>

  <!-- Interpret escaped newlines -->
  <rect x="800" y="980" width="300" height="60" class="box"/>
  <text x="950" y="1015" class="text">Interpret escaped newlines</text>

  <!-- Code or Danger -->
  <polygon points="950,1160 1070,1260 950,1360 830,1260" class="diamond"/>
  <text x="950" y="1265" class="text">Code or Danger?</text>

  <!-- Return unchanged input -->
  <rect x="1350" y="1230" width="280" height="60" class="box"/>
  <text x="1490" y="1265" class="text">Return unchanged input</text>

  <!-- form_code_blocks -->
  <rect x="870" y="1420" width="220" height="60" class="box"/>
  <text x="980" y="1455" class="text">form_code_blocks()</text>

  <!-- For each block -->
  <rect x="760" y="1580" width="440" height="60" class="box"/>
  <text x="980" y="1615" class="text">For each block: strip ➔ dedent ➔ parse</text>

  <!-- AST parse success -->
  <polygon points="950,1760 1070,1860 950,1960 830,1860" class="diamond"/>
  <text x="950" y="1865" class="text">AST parse success?</text>

  <!-- Check tokens -->
  <rect x="300" y="1830" width="310" height="60" class="box"/>
  <text x="455" y="1865" class="text">Check STRONG_PY_KEYWORDS</text>

  <!-- Assign confidence -->
  <rect x="1350" y="1830" width="220" height="60" class="box"/>
  <text x="1460" y="1865" class="text">Assign confidence</text>

  <!-- Confidence threshold -->
  <polygon points="950,2060 1070,2160 950,2260 830,2160" class="diamond"/>
  <text x="950" y="2165" class="text">Confidence ≥ threshold?</text>

  <!-- Leave block unchanged -->
  <rect x="300" y="2130" width="270" height="60" class="box"/>
  <text x="435" y="2165" class="text">Leave block unchanged</text>

  <!-- Wrap block with tags -->
  <rect x="1350" y="2130" width="240" height="60" class="box"/>
  <text x="1470" y="2165" class="text">Wrap block with tags</text>

  <!-- Recombine -->
  <rect x="870" y="2380" width="260" height="60" class="box"/>
  <text x="1000" y="2415" class="text">Recombine and return</text>

  <!-- FLÈCHES -->
  <line x1="950" y1="80" x2="950" y2="180" class="arrow"/>
  <line x1="950" y1="240" x2="950" y2="360" class="arrow"/>
  <line x1="1070" y1="460" x2="1350" y2="460" class="arrow"/>
  <line x1="950" y1="560" x2="950" y2="660" class="arrow"/>
  <line x1="950" y1="720" x2="950" y2="820" class="arrow"/>
  <line x1="950" y1="880" x2="950" y2="980" class="arrow"/>
  <line x1="950" y1="1040" x2="950" y2="1160" class="arrow"/>
  <line x1="1070" y1="1260" x2="1350" y2="1260" class="arrow"/>
  <line x1="950" y1="1360" x2="950" y2="1420" class="arrow"/>
  <line x1="980" y1="1480" x2="980" y2="1580" class="arrow"/>
  <line x1="980" y1="1640" x2="950" y2="1760" class="arrow"/>
  <line x1="830" y1="1860" x2="610" y2="1860" class="arrow"/>
  <line x1="1070" y1="1860" x2="1350" y2="1860" class="arrow"/>
  <line x1="950" y1="1960" x2="950" y2="2060" class="arrow"/>
  <line x1="830" y1="2160" x2="570" y2="2160" class="arrow"/>
  <line x1="1070" y1="2160" x2="1350" y2="2160" class="arrow"/>
  <line x1="435" y1="2190" x2="1000" y2="2380" class="arrow"/>
  <line x1="1470" y1="2190" x2="1000" y2="2380" class="arrow"/>
</svg>
